<svg width="18" height="18" viewBox="0 0 18 18" fill="none" xmlns="http://www.w3.org/2000/svg">
<path d="M17.4974 9.00249C17.219 9.00249 16.9915 9.23 16.9915 9.50844V14.0105C16.9915 15.1039 16.1018 15.9936 15.0085 15.9936L2.99151 15.9933C1.90153 15.9899 1.01188 15.1036 1.01188 14.0103V9.44027C1.01188 9.16183 0.78438 8.93433 0.505942 8.93433C0.227504 8.93433 0 9.16183 0 9.44027V14.0103C0 15.6605 1.34126 17.0018 2.99151 17.0018L15.0085 17.002C16.6587 17.002 18 15.6608 18 14.0105V9.50844C18.0034 9.23 17.7759 9.00249 17.4974 9.00249Z" fill="#757575"/>
<path d="M9.35841 1.14794C9.26334 1.05286 9.1343 0.998535 9.00187 0.998535C8.86605 0.998535 8.73702 1.05286 8.64534 1.14794L5.76249 4.03079C5.56554 4.22774 5.56554 4.54692 5.76249 4.74387C5.95943 4.94081 6.27862 4.94081 6.47556 4.74387L8.49933 2.72349L8.49933 12.4848C8.49933 12.7632 8.72683 12.9907 9.00527 12.9907C9.28371 12.9907 9.51121 12.7632 9.51121 12.4848L9.51121 2.72349L11.535 4.74726C11.6301 4.84234 11.7591 4.89667 11.8915 4.89667C12.0239 4.89667 12.153 4.84234 12.2481 4.74726C12.3431 4.65218 12.3975 4.52315 12.3975 4.39073C12.3975 4.2583 12.3431 4.12926 12.2481 4.03419L9.35841 1.14794Z" fill="#757575"/>
</svg>
