<svg
  width="16"
  height="15"
  viewBox="0 0 16 15"
  fill="none"
  xmlns="http://www.w3.org/2000/svg"
>
  <path
    d="M0.5 0C0.223858 0 0 0.223858 0 0.5C0 0.776142 0.223858 1 0.5 1H12.5C12.7761 1 13 0.776142 13 0.5C13 0.223858 12.7761 0 12.5 0H0.5Z"
    fill="#424242"
  />
  <path
    fillRule="none"
    clipRule="evenodd"
    d="M12.453 12.1598C11.7756 12.6864 10.9244 13 10 13C7.79086 13 6 11.2091 6 9C6 6.79086 7.79086 5 10 5C12.2091 5 14 6.79086 14 9C14 9.92429 13.6865 10.7754 13.16 11.4527L15.8533 14.1462C16.0486 14.3415 16.0486 14.6581 15.8533 14.8533C15.658 15.0486 15.3414 15.0486 15.1462 14.8533L12.453 12.1598ZM13 9C13 10.6569 11.6569 12 10 12C8.34315 12 7 10.6569 7 9C7 7.34315 8.34315 6 10 6C11.6569 6 13 7.34315 13 9Z"
    fill="#424242"
  />
  <path
    d="M0 3.5C0 3.22386 0.223858 3 0.5 3H15.5C15.7761 3 16 3.22386 16 3.5C16 3.77614 15.7761 4 15.5 4H0.5C0.223858 4 0 3.77614 0 3.5Z"
    fill="#424242"
  />
  <path
    d="M0.5 6C0.223858 6 0 6.22386 0 6.5C0 6.77614 0.223858 7 0.5 7H5.5C5.77614 7 6 6.77614 6 6.5C6 6.22386 5.77614 6 5.5 6H0.5Z"
    fill="#424242"
  />
  <path
    d="M0 9.5C0 9.22386 0.223858 9 0.5 9H4.5C4.77614 9 5 9.22386 5 9.5C5 9.77614 4.77614 10 4.5 10H0.5C0.223858 10 0 9.77614 0 9.5Z"
    fill="#424242"
  />
</svg>