<svg width="18" height="18" viewBox="0 0 18 18" fill="none" xmlns="http://www.w3.org/2000/svg">
<path d="M14.3536 1.14645C14.1583 0.951184 13.8417 0.951184 13.6464 1.14645C13.4512 1.34171 13.4512 1.65829 13.6464 1.85355L15.7939 4.00103C12.3277 4.03568 9.98616 4.94722 8.51246 6.49886C7.01404 8.07652 6.5 10.225 6.5 12.5C6.5 12.7761 6.72386 13 7 13C7.27614 13 7.5 12.7761 7.5 12.5C7.5 10.3567 7.98596 8.50529 9.23754 7.18752C10.4593 5.90114 12.4944 5.03597 15.7918 5.0011L13.6464 7.14645C13.4512 7.34171 13.4512 7.65829 13.6464 7.85355C13.8417 8.04882 14.1583 8.04882 14.3536 7.85355L17.7071 4.5L14.3536 1.14645Z" fill="#757575"/>
<path d="M2 4C1.72386 4 1.5 4.22386 1.5 4.5V16.5C1.5 16.7761 1.72386 17 2 17H14C14.2761 17 14.5 16.7761 14.5 16.5V11.5C14.5 11.2239 14.7239 11 15 11C15.2761 11 15.5 11.2239 15.5 11.5V16.5C15.5 17.3284 14.8284 18 14 18H2C1.17157 18 0.5 17.3284 0.5 16.5V4.5C0.5 3.67157 1.17157 3 2 3H7.3C7.57614 3 7.8 3.22386 7.8 3.5C7.8 3.77614 7.57614 4 7.3 4H2Z" fill="#757575"/>
</svg>
